<?xml version="1.0" encoding="utf-8"?>
<!-- Generator: Adobe Illustrator 24.2.0, SVG Export Plug-In . SVG Version: 6.00 Build 0)  -->
<svg version="1.1" id="Layer_1" xmlns="http://www.w3.org/2000/svg" xmlns:xlink="http://www.w3.org/1999/xlink" x="0px" y="0px"
	 viewBox="0 0 29 18.5" style="enable-background:new 0 0 29 18.5;" xml:space="preserve">
<style type="text/css">
	.st0{fill:#FFFFFF;}
</style>
<path class="st0" d="M25.5,6.2c0.5-0.6,0.8-1.5,0.8-2.3c0-2.1-1.7-3.8-3.8-3.8s-3.8,1.7-3.8,3.8c0,0.9,0.3,1.7,0.8,2.3
	C19,6.5,18.4,6.8,18,7.3C17.4,5.9,16.1,5,14.5,5C13,5,11.6,5.9,11,7.3c-0.4-0.4-1-0.8-1.5-1.1c0.5-0.6,0.8-1.5,0.8-2.3
	C10.3,1.7,8.6,0,6.5,0S2.7,1.7,2.7,3.8c0,0.9,0.3,1.7,0.8,2.3C1.4,7.3,0,9.5,0,11.9c0,1.3,1,2.3,2.2,2.4v4.3c0,1.3,1.1,2.4,2.4,2.4
	h3.8c0.7,0,1.3-0.3,1.8-0.8v3.4c0,1.3,1.1,2.4,2.4,2.4h3.8c1.3,0,2.4-1.1,2.4-2.4v-3.4c0.4,0.5,1.1,0.8,1.8,0.8h3.8
	c1.3,0,2.4-1.1,2.4-2.4v-4.3c1.2-0.1,2.2-1.1,2.2-2.4C29,9.5,27.7,7.3,25.5,6.2z M22.5,1c1.6,0,2.8,1.3,2.8,2.8
	c0,1.6-1.3,2.8-2.8,2.8s-2.8-1.3-2.8-2.8S21,1,22.5,1z M11.7,8.3C11.7,8.3,11.7,8.3,11.7,8.3C12,7,13.2,6,14.5,6
	c1.6,0,2.8,1.3,2.8,2.8c0,1.6-1.3,2.8-2.8,2.8s-2.8-1.3-2.8-2.8C11.7,8.7,11.7,8.5,11.7,8.3z M6.5,1c1.6,0,2.8,1.3,2.8,2.8
	c0,1.6-1.3,2.8-2.8,2.8S3.7,5.4,3.7,3.8C3.7,2.3,5,1,6.5,1z M8.4,20H4.6c-0.8,0-1.4-0.6-1.4-1.4v-4.8c0-0.3-0.2-0.5-0.5-0.5H2.4
	c-0.8,0-1.4-0.6-1.4-1.4c0-2.2,1.3-4.1,3.3-5c0.6,0.5,1.4,0.7,2.3,0.7c0.8,0,1.6-0.3,2.3-0.7c0.8,0.3,1.4,0.8,2,1.5
	c0,0.1,0,0.3,0,0.4c0,0.9,0.3,1.7,0.8,2.3C9.4,12.3,8,14.5,8,16.9c0,1.1,0.7,2,1.7,2.3C9.4,19.7,9,20,8.4,20z M18.6,18.3h-0.3
	c-0.3,0-0.5,0.2-0.5,0.5v4.8c0,0.8-0.6,1.4-1.4,1.4h-3.8c-0.8,0-1.4-0.6-1.4-1.4v-4.8c0-0.3-0.2-0.5-0.5-0.5h-0.3
	c-0.8,0-1.4-0.6-1.4-1.4c0-2.2,1.3-4.1,3.3-5c0.6,0.5,1.4,0.7,2.2,0.7c0.8,0,1.6-0.3,2.3-0.7c2,0.9,3.3,2.8,3.3,5
	C20,17.7,19.4,18.3,18.6,18.3z M26.6,13.3h-0.3c-0.3,0-0.5,0.2-0.5,0.5v4.8c0,0.8-0.6,1.4-1.4,1.4h-3.8c-0.6,0-1-0.3-1.3-0.8
	c1-0.3,1.7-1.2,1.7-2.3c0-2.5-1.4-4.6-3.5-5.8c0.5-0.6,0.8-1.5,0.8-2.3c0-0.1,0-0.3,0-0.4c0.5-0.6,1.2-1.1,2-1.5
	c0.6,0.5,1.4,0.7,2.2,0.7c0.8,0,1.6-0.3,2.3-0.7c2,0.9,3.3,2.8,3.3,5C28,12.7,27.4,13.3,26.6,13.3z"/>
</svg>
