<?xml version="1.0" encoding="utf-8"?>
<!-- Generator: Adobe Illustrator 24.2.0, SVG Export Plug-In . SVG Version: 6.00 Build 0)  -->
<svg version="1.1" id="Layer_1" xmlns="http://www.w3.org/2000/svg" xmlns:xlink="http://www.w3.org/1999/xlink" x="0px" y="0px"
	 viewBox="0 0 21.6 21.6" style="enable-background:new 0 0 21.6 21.6;" xml:space="preserve">
<style type="text/css">
	.st0{fill:#E11E2F;}
</style>
<path class="st0" d="M14.4,12.9l7,7c0.4,0.4,0.4,1,0,1.4c-0.4,0.4-1,0.4-1.4,0l-7-7c-1.2-1.2-3.1-1.2-4.2,0l-7,7
	c-0.4,0.4-1,0.4-1.4,0c-0.4-0.4-0.4-1,0-1.4l7-7c1.2-1.2,1.2-3.1,0-4.2l-7-7c-0.4-0.4-0.4-1,0-1.4c0.4-0.4,1-0.4,1.4,0l7,7
	c1.2,1.2,3.1,1.2,4.2,0l7-7l0,0c0.4-0.4,1-0.4,1.4,0c0.4,0.4,0.4,1,0,1.4l-7,7C13.2,9.9,13.2,11.8,14.4,12.9z"/>
</svg>
