<?xml version="1.0" encoding="utf-8"?>
<!-- Generator: Adobe Illustrator 24.2.0, SVG Export Plug-In . SVG Version: 6.00 Build 0)  -->
<svg version="1.1" id="Layer_1" xmlns="http://www.w3.org/2000/svg" xmlns:xlink="http://www.w3.org/1999/xlink" x="0px" y="0px"
	 viewBox="0 0 49.7 55.8" style="enable-background:new 0 0 49.7 55.8;" xml:space="preserve">
<style type="text/css">
	.st0{fill:none;stroke:#FFFFFF;stroke-width:3;stroke-miterlimit:10;}
</style>
<path class="st0" d="M46.9,44c-1.1-1.9-2.5-3.8-3.9-5.5c-0.8-1-1.7-2-2.8-2.7c-1.3-0.7-3.2-1.1-4.5-0.2c-0.6,0.4-1.1,0.7-1.7,1.1
	c-0.5,0.4-1.1,0.7-1.6,1.1c-1.5,1-2.8,0.4-3.9-0.7c-2.8-2.7-5.5-5.5-7.9-8.6c-0.9-1.1-6.2-7-4.7-8.5c0.1-0.1,0.2-0.2,0.3-0.3
	c0.2-0.2,0.5-0.5,0.7-0.7c0.5-0.5,0.9-0.9,1.4-1.4s0.9-0.9,1.4-1.4c1.1-1.1,1.1-3.1,0.7-4.5c-0.4-1.2-1.3-2.3-2.1-3.3
	c-1.4-1.7-3-3.5-4.7-4.9c-1.2-1-2.6-1.9-4.1-2C8.6,1.4,7.6,1.7,6.9,2.3c-0.5,0.4-1,0.9-1.5,1.4C3.8,5.4,2.6,7.7,2,9.9
	c-0.5,1.8-0.6,3.6-0.4,5.4C2,20,4,24.1,6.4,28c2.6,4.3,5.5,8.5,8.8,12.3c4.7,5.3,10.9,11.3,17.9,13.3c1.7,0.5,3.6,0.8,5.4,0.6
	c2.3-0.1,4.7-0.9,6.7-2.1c0.6-0.4,1.2-0.8,1.7-1.2c0.7-0.6,1.2-1.5,1.3-2.4C48.3,46.8,47.7,45.3,46.9,44z"/>
</svg>
